<svg width="31" height="31" viewBox="0 0 31 31" fill="none" xmlns="http://www.w3.org/2000/svg">
<rect x="0.5" y="0.267578" width="30" height="30.4651" rx="15" fill="white"/>
<path d="M9.99082 13.5939C10.786 11.1842 13.0506 9.45362 15.7328 9.45362C17.1747 9.45362 18.477 9.96525 19.5003 10.8025L22.477 7.82572C20.6631 6.24432 18.3375 5.26758 15.7328 5.26758C11.6995 5.26758 8.22702 7.56845 6.55762 10.9381L9.99082 13.5939Z" fill="#EA4335"/>
<path d="M19.1781 20.6272C18.2488 21.2273 17.068 21.5467 15.7325 21.5467C13.0605 21.5467 10.8031 19.8293 9.99973 17.4341L6.55518 20.0494C8.22251 23.425 11.6949 25.7328 15.7325 25.7328C18.2334 25.7328 20.6231 24.8437 22.4129 23.1743L19.1781 20.6272Z" fill="#34A853"/>
<path d="M22.4127 23.1742C24.2844 21.4283 25.4999 18.8288 25.4999 15.5001C25.4999 14.8955 25.4068 14.2443 25.2673 13.6396H15.7324V17.5931H21.2208C20.95 18.9226 20.2231 19.9523 19.178 20.6271L22.4127 23.1742Z" fill="#4A90E2"/>
<path d="M9.99975 17.4338C9.79625 16.8271 9.68605 16.1768 9.68605 15.5C9.68605 14.8334 9.79293 14.1926 9.99056 13.5938L6.55736 10.938C5.87228 12.3112 5.5 13.8588 5.5 15.5C5.5 17.1368 5.87927 18.6807 6.5552 20.0492L9.99975 17.4338Z" fill="#FBBC05"/>
</svg>
