<svg width="38" height="38" viewBox="0 0 38 38" fill="none" xmlns="http://www.w3.org/2000/svg">
<rect width="37.1212" height="37.1212" rx="18.5606" fill="#E1306C"/>
<g clip-path="url(#clip0_153_26)">
<path d="M18.5639 14.8088C16.456 14.8088 14.7557 16.4825 14.7557 18.5575C14.7557 20.6325 16.456 22.3062 18.5639 22.3062C20.6719 22.3062 22.3722 20.6325 22.3722 18.5575C22.3722 16.4825 20.6719 14.8088 18.5639 14.8088ZM18.5639 20.9947C17.2017 20.9947 16.0881 19.9017 16.0881 18.5575C16.0881 17.2133 17.1984 16.1203 18.5639 16.1203C19.9295 16.1203 21.0398 17.2133 21.0398 18.5575C21.0398 19.9017 19.9262 20.9947 18.5639 20.9947ZM23.4162 14.6554C23.4162 15.1416 23.0185 15.5298 22.528 15.5298C22.0341 15.5298 21.6397 15.1383 21.6397 14.6554C21.6397 14.1726 22.0374 13.7811 22.528 13.7811C23.0185 13.7811 23.4162 14.1726 23.4162 14.6554ZM25.9385 15.5429C25.8821 14.3716 25.6103 13.3341 24.7387 12.4793C23.8703 11.6245 22.8163 11.3569 21.6264 11.2982C20.4001 11.2297 16.7244 11.2297 15.4981 11.2982C14.3116 11.3537 13.2576 11.6212 12.3859 12.476C11.5142 13.3308 11.2458 14.3683 11.1861 15.5396C11.1165 16.7468 11.1165 20.365 11.1861 21.5722C11.2424 22.7434 11.5142 23.7809 12.3859 24.6357C13.2576 25.4905 14.3083 25.7581 15.4981 25.8168C16.7244 25.8853 20.4001 25.8853 21.6264 25.8168C22.8163 25.7613 23.8703 25.4938 24.7387 24.6357C25.607 23.7809 25.8788 22.7434 25.9385 21.5722C26.0081 20.365 26.0081 16.75 25.9385 15.5429ZM24.3542 22.8674C24.0957 23.5069 23.5952 23.9995 22.9423 24.2573C21.9645 24.639 19.6444 24.5509 18.5639 24.5509C17.4834 24.5509 15.1601 24.6357 14.1856 24.2573C13.536 24.0028 13.0355 23.5101 12.7737 22.8674C12.3859 21.9049 12.4754 19.6211 12.4754 18.5575C12.4754 17.4939 12.3892 15.2068 12.7737 14.2476C13.0322 13.6081 13.5327 13.1155 14.1856 12.8577C15.1634 12.476 17.4834 12.5641 18.5639 12.5641C19.6444 12.5641 21.9678 12.4793 22.9423 12.8577C23.5919 13.1122 24.0923 13.6049 24.3542 14.2476C24.742 15.2101 24.6525 17.4939 24.6525 18.5575C24.6525 19.6211 24.742 21.9082 24.3542 22.8674Z" fill="white"/>
</g>
<defs>
<clipPath id="clip0_153_26">
<rect width="14.8485" height="16.7045" fill="white" transform="translate(11.1364 10.2085)"/>
</clipPath>
</defs>
</svg>
