<svg width="38" height="38" viewBox="0 0 38 38" fill="none" xmlns="http://www.w3.org/2000/svg">
<rect x="0.878792" width="37.1212" height="37.1212" rx="18.5606" fill="#1DA1F2"/>
<g clip-path="url(#clip0_153_29)">
<path d="M24.7476 15.9759C24.7561 16.0905 24.7561 16.2052 24.7561 16.3198C24.7561 19.8163 22.0002 23.8451 16.9634 23.8451C15.4117 23.8451 13.9702 23.411 12.7576 22.6577C12.9781 22.6823 13.19 22.6905 13.419 22.6905C14.6994 22.6905 15.878 22.2729 16.8193 21.5605C15.6152 21.5359 14.6061 20.7744 14.2584 19.7262C14.428 19.7508 14.5976 19.7672 14.7757 19.7672C15.0216 19.7672 15.2675 19.7344 15.4965 19.6771C14.2415 19.4314 13.3002 18.3669 13.3002 17.0813V17.0486C13.6648 17.2451 14.0889 17.368 14.5382 17.3843C13.8005 16.9094 13.3172 16.0987 13.3172 15.1816C13.3172 14.6903 13.4529 14.2399 13.6903 13.8469C15.0385 15.4518 17.0652 16.4999 19.3376 16.6146C19.2952 16.4181 19.2698 16.2134 19.2698 16.0087C19.2698 14.5511 20.4908 13.3638 22.0087 13.3638C22.7973 13.3638 23.5095 13.6831 24.0098 14.199C24.6288 14.0844 25.2224 13.8633 25.7481 13.5603C25.5446 14.1744 25.1122 14.6903 24.544 15.0178C25.0952 14.9605 25.6294 14.8131 26.1212 14.6084C25.7482 15.1325 25.2818 15.5992 24.7476 15.9759Z" fill="white"/>
</g>
<defs>
<clipPath id="clip0_153_29">
<rect width="13.3636" height="11.1364" fill="white" transform="translate(12.7576 13.3638)"/>
</clipPath>
</defs>
</svg>
